<mxfile host="app.diagrams.net" modified="2020-10-22T05:49:04.867Z" agent="5.0 (Windows NT 10.0; Win64; x64) AppleWebKit/537.36 (KHTML, like Gecko) Chrome/86.0.4240.75 Safari/537.36" etag="k5ICzagpmYYlVAYXbNO9" version="13.8.1" type="github">
  <diagram id="6a731a19-8d31-9384-78a2-239565b7b9f0" name="Page-1">
    <mxGraphModel dx="1422" dy="777" grid="1" gridSize="10" guides="1" tooltips="1" connect="1" arrows="1" fold="1" page="1" pageScale="1" pageWidth="1169" pageHeight="827" background="#003469" math="0" shadow="0">
      <root>
        <mxCell id="0" />
        <mxCell id="1" parent="0" />
        <mxCell id="2019" value="" style="rounded=1;whiteSpace=wrap;html=1;dashed=1;strokeColor=none;strokeWidth=2;fillColor=#E6E6E6;fontFamily=Verdana;fontSize=12;fontColor=#00BEF2" parent="1" vertex="1">
          <mxGeometry x="45" y="60" width="165" height="670" as="geometry" />
        </mxCell>
        <mxCell id="2020" value="" style="rounded=1;whiteSpace=wrap;html=1;dashed=1;strokeColor=none;strokeWidth=2;fillColor=#E6E6E6;fontFamily=Verdana;fontSize=12;fontColor=#00BEF2" parent="1" vertex="1">
          <mxGeometry x="225" y="60" width="165" height="670" as="geometry" />
        </mxCell>
        <mxCell id="2021" value="" style="rounded=1;whiteSpace=wrap;html=1;dashed=1;strokeColor=none;strokeWidth=2;fillColor=#E6E6E6;fontFamily=Verdana;fontSize=12;fontColor=#00BEF2" parent="1" vertex="1">
          <mxGeometry x="405" y="60" width="165" height="670" as="geometry" />
        </mxCell>
        <mxCell id="2022" value="" style="rounded=1;whiteSpace=wrap;html=1;dashed=1;strokeColor=none;strokeWidth=2;fillColor=#E6E6E6;fontFamily=Verdana;fontSize=12;fontColor=#00BEF2" parent="1" vertex="1">
          <mxGeometry x="585" y="60" width="165" height="670" as="geometry" />
        </mxCell>
        <mxCell id="2025" value="DB" style="whiteSpace=wrap;html=1;dashed=1;strokeColor=none;strokeWidth=2;fillColor=#3399FF;fontFamily=Helvetica;fontSize=18;fontColor=#FFFFFF;fontStyle=1" parent="1" vertex="1">
          <mxGeometry x="45" y="60" width="165" height="60" as="geometry" />
        </mxCell>
        <mxCell id="2026" value="Server" style="whiteSpace=wrap;html=1;dashed=1;strokeColor=none;strokeWidth=2;fillColor=#3399FF;fontFamily=Helvetica;fontSize=18;fontColor=#FFFFFF;fontStyle=1" parent="1" vertex="1">
          <mxGeometry x="225" y="60" width="165" height="60" as="geometry" />
        </mxCell>
        <mxCell id="2027" value="NetWork" style="whiteSpace=wrap;html=1;dashed=1;strokeColor=none;strokeWidth=2;fillColor=#3399FF;fontFamily=Helvetica;fontSize=18;fontColor=#FFFFFF;fontStyle=1" parent="1" vertex="1">
          <mxGeometry x="405" y="60" width="165" height="60" as="geometry" />
        </mxCell>
        <mxCell id="2028" value="AliCloud" style="whiteSpace=wrap;html=1;dashed=1;strokeColor=none;strokeWidth=2;fillColor=#3399FF;fontFamily=Helvetica;fontSize=18;fontColor=#FFFFFF;fontStyle=1" parent="1" vertex="1">
          <mxGeometry x="585" y="60" width="165" height="60" as="geometry" />
        </mxCell>
        <mxCell id="2031" value="" style="shape=mxgraph.arrows.two_way_arrow_horizontal;html=1;verticalLabelPosition=bottom;verticalAlign=top;strokeWidth=2;strokeColor=none;dashed=1;fillColor=#FFFFFF;fontFamily=Verdana;fontSize=12;fontColor=#00BEF2" parent="1" vertex="1">
          <mxGeometry x="185" y="71" width="67" height="39" as="geometry" />
        </mxCell>
        <mxCell id="2032" value="" style="shape=mxgraph.arrows.two_way_arrow_horizontal;html=1;verticalLabelPosition=bottom;verticalAlign=top;strokeWidth=2;strokeColor=none;dashed=1;fillColor=#FFFFFF;fontFamily=Verdana;fontSize=12;fontColor=#00BEF2" parent="1" vertex="1">
          <mxGeometry x="365" y="71" width="67" height="39" as="geometry" />
        </mxCell>
        <mxCell id="2033" value="" style="shape=mxgraph.arrows.two_way_arrow_horizontal;html=1;verticalLabelPosition=bottom;verticalAlign=top;strokeWidth=2;strokeColor=none;dashed=1;fillColor=#FFFFFF;fontFamily=Verdana;fontSize=12;fontColor=#00BEF2" parent="1" vertex="1">
          <mxGeometry x="545" y="71" width="67" height="39" as="geometry" />
        </mxCell>
        <mxCell id="2048" value="网关应用" style="rounded=1;whiteSpace=wrap;html=1;dashed=1;strokeColor=none;strokeWidth=2;fillColor=#FFFFFF;fontFamily=Helvetica;fontSize=14;fontColor=#FFB366;opacity=75;verticalAlign=top;fontStyle=1" parent="1" vertex="1">
          <mxGeometry x="415" y="140" width="140" height="480" as="geometry" />
        </mxCell>
        <mxCell id="2055" value="用户中心服务" style="rounded=1;whiteSpace=wrap;html=1;dashed=1;strokeColor=none;strokeWidth=2;fillColor=#FFFFFF;fontFamily=Helvetica;fontSize=14;fontColor=#FFB366;opacity=75;verticalAlign=top;fontStyle=1" parent="1" vertex="1">
          <mxGeometry x="238.25" y="140" width="140" height="140" as="geometry" />
        </mxCell>
        <mxCell id="2068" value="消息队列" style="rounded=1;whiteSpace=wrap;html=1;dashed=1;strokeColor=none;strokeWidth=2;fillColor=#FFFFFF;fontFamily=Helvetica;fontSize=14;fontColor=#FFB366;opacity=75;verticalAlign=top;fontStyle=1" parent="1" vertex="1">
          <mxGeometry x="597.5" y="140" width="140" height="480" as="geometry" />
        </mxCell>
        <mxCell id="2069" value="Cloud" style="verticalLabelPosition=bottom;html=1;verticalAlign=top;strokeColor=none;fillColor=#3399FF;shape=mxgraph.azure.cloud;dashed=1;fontSize=14;fontColor=#004C99" parent="1" vertex="1">
          <mxGeometry x="642.5" y="191" width="50" height="32.5" as="geometry" />
        </mxCell>
        <mxCell id="2076" value="" style="arrow;html=1;endArrow=block;endFill=1;strokeColor=none;strokeWidth=4;fontFamily=Helvetica;fontSize=36;fontColor=#FFB366;fillColor=#FFB366;opacity=100" parent="1" edge="1">
          <mxGeometry width="100" height="100" relative="1" as="geometry">
            <mxPoint x="423" y="206.82999999999998" as="sourcePoint" />
            <mxPoint x="343" y="206.82999999999998" as="targetPoint" />
          </mxGeometry>
        </mxCell>
        <mxCell id="Cw-XtT1dbyPp5xmL2tZ--2086" value="用户中心" style="rounded=1;whiteSpace=wrap;html=1;dashed=1;strokeColor=none;strokeWidth=2;fillColor=#FFFFFF;fontFamily=Helvetica;fontSize=14;fontColor=#FFB366;opacity=75;verticalAlign=top;fontStyle=1;arcSize=18;" vertex="1" parent="1">
          <mxGeometry x="57.5" y="140" width="140" height="140" as="geometry" />
        </mxCell>
        <mxCell id="Cw-XtT1dbyPp5xmL2tZ--2087" value="SQL Database" style="verticalLabelPosition=bottom;html=1;verticalAlign=top;strokeColor=none;fillColor=#3399FF;shape=mxgraph.azure.sql_database;dashed=1;fontFamily=Helvetica;fontSize=14;fontColor=#004C99" vertex="1" parent="1">
          <mxGeometry x="108.5" y="191" width="37.5" height="50" as="geometry" />
        </mxCell>
        <mxCell id="Cw-XtT1dbyPp5xmL2tZ--2093" value="用户注册中心" style="rounded=1;whiteSpace=wrap;html=1;dashed=1;strokeColor=none;strokeWidth=2;fillColor=#FFFFFF;fontFamily=Helvetica;fontSize=14;fontColor=#FFB366;opacity=75;verticalAlign=top;fontStyle=1" vertex="1" parent="1">
          <mxGeometry x="57.25" y="306" width="140" height="140" as="geometry" />
        </mxCell>
        <mxCell id="Cw-XtT1dbyPp5xmL2tZ--2094" value="SQL Database" style="verticalLabelPosition=bottom;html=1;verticalAlign=top;strokeColor=none;fillColor=#3399FF;shape=mxgraph.azure.sql_database;dashed=1;fontFamily=Helvetica;fontSize=14;fontColor=#004C99" vertex="1" parent="1">
          <mxGeometry x="108.25" y="357" width="37.5" height="50" as="geometry" />
        </mxCell>
        <mxCell id="Cw-XtT1dbyPp5xmL2tZ--2095" value="企业微信" style="rounded=1;whiteSpace=wrap;html=1;dashed=1;strokeColor=none;strokeWidth=2;fillColor=#FFFFFF;fontFamily=Helvetica;fontSize=14;fontColor=#FFB366;opacity=75;verticalAlign=top;fontStyle=1" vertex="1" parent="1">
          <mxGeometry x="57" y="476" width="140" height="140" as="geometry" />
        </mxCell>
        <mxCell id="Cw-XtT1dbyPp5xmL2tZ--2096" value="SQL Database" style="verticalLabelPosition=bottom;html=1;verticalAlign=top;strokeColor=none;fillColor=#3399FF;shape=mxgraph.azure.sql_database;dashed=1;fontFamily=Helvetica;fontSize=14;fontColor=#004C99" vertex="1" parent="1">
          <mxGeometry x="108" y="527" width="37.5" height="50" as="geometry" />
        </mxCell>
        <mxCell id="Cw-XtT1dbyPp5xmL2tZ--2104" value="Storage Servers" style="verticalLabelPosition=bottom;html=1;verticalAlign=top;strokeColor=none;fillColor=#3399FF;shape=mxgraph.azure.server_rack;dashed=1;fontFamily=Helvetica;fontSize=14;fontColor=#004C99" vertex="1" parent="1">
          <mxGeometry x="283.25" y="188" width="50" height="50" as="geometry" />
        </mxCell>
        <mxCell id="Cw-XtT1dbyPp5xmL2tZ--2105" value="用户注册中心" style="rounded=1;whiteSpace=wrap;html=1;dashed=1;strokeColor=none;strokeWidth=2;fillColor=#FFFFFF;fontFamily=Helvetica;fontSize=14;fontColor=#FFB366;opacity=75;verticalAlign=top;fontStyle=1" vertex="1" parent="1">
          <mxGeometry x="237.5" y="306" width="140" height="140" as="geometry" />
        </mxCell>
        <mxCell id="Cw-XtT1dbyPp5xmL2tZ--2106" value="Storage Servers" style="verticalLabelPosition=bottom;html=1;verticalAlign=top;strokeColor=none;fillColor=#3399FF;shape=mxgraph.azure.server_rack;dashed=1;fontFamily=Helvetica;fontSize=14;fontColor=#004C99" vertex="1" parent="1">
          <mxGeometry x="282.5" y="354" width="50" height="50" as="geometry" />
        </mxCell>
        <mxCell id="Cw-XtT1dbyPp5xmL2tZ--2107" value="企业微信服务" style="rounded=1;whiteSpace=wrap;html=1;dashed=1;strokeColor=none;strokeWidth=2;fillColor=#FFFFFF;fontFamily=Helvetica;fontSize=14;fontColor=#FFB366;opacity=75;verticalAlign=top;fontStyle=1" vertex="1" parent="1">
          <mxGeometry x="237.5" y="476" width="140" height="140" as="geometry" />
        </mxCell>
        <mxCell id="Cw-XtT1dbyPp5xmL2tZ--2108" value="Storage Servers" style="verticalLabelPosition=bottom;html=1;verticalAlign=top;strokeColor=none;fillColor=#3399FF;shape=mxgraph.azure.server_rack;dashed=1;fontFamily=Helvetica;fontSize=14;fontColor=#004C99" vertex="1" parent="1">
          <mxGeometry x="282.5" y="524" width="50" height="50" as="geometry" />
        </mxCell>
        <mxCell id="Cw-XtT1dbyPp5xmL2tZ--2112" value="" style="arrow;html=1;endArrow=block;endFill=1;strokeColor=none;strokeWidth=4;fontFamily=Helvetica;fontSize=36;fontColor=#FFB366;fillColor=#FFB366;" edge="1" parent="1">
          <mxGeometry width="100" height="100" relative="1" as="geometry">
            <mxPoint x="172" y="551.5" as="sourcePoint" />
            <mxPoint x="252" y="551.5" as="targetPoint" />
          </mxGeometry>
        </mxCell>
        <mxCell id="Cw-XtT1dbyPp5xmL2tZ--2113" value="" style="arrow;html=1;endArrow=block;endFill=1;strokeColor=none;strokeWidth=4;fontFamily=Helvetica;fontSize=36;fontColor=#FFB366;fillColor=#FFB366;" edge="1" parent="1">
          <mxGeometry width="100" height="100" relative="1" as="geometry">
            <mxPoint x="172" y="378.5" as="sourcePoint" />
            <mxPoint x="252" y="378.5" as="targetPoint" />
          </mxGeometry>
        </mxCell>
        <mxCell id="Cw-XtT1dbyPp5xmL2tZ--2114" value="" style="arrow;html=1;endArrow=block;endFill=1;strokeColor=none;strokeWidth=4;fontFamily=Helvetica;fontSize=36;fontColor=#FFB366;fillColor=#FFB366;" edge="1" parent="1">
          <mxGeometry width="100" height="100" relative="1" as="geometry">
            <mxPoint x="172" y="215.5" as="sourcePoint" />
            <mxPoint x="252" y="215.5" as="targetPoint" />
          </mxGeometry>
        </mxCell>
        <mxCell id="Cw-XtT1dbyPp5xmL2tZ--2115" value="" style="arrow;html=1;endArrow=block;endFill=1;strokeColor=none;strokeWidth=4;fontFamily=Helvetica;fontSize=36;fontColor=#FFB366;fillColor=#FFB366;" edge="1" parent="1">
          <mxGeometry width="100" height="100" relative="1" as="geometry">
            <mxPoint x="352" y="370" as="sourcePoint" />
            <mxPoint x="432" y="370" as="targetPoint" />
          </mxGeometry>
        </mxCell>
        <mxCell id="Cw-XtT1dbyPp5xmL2tZ--2116" value="" style="arrow;html=1;endArrow=block;endFill=1;strokeColor=none;strokeWidth=4;fontFamily=Helvetica;fontSize=36;fontColor=#FFB366;fillColor=#FFB366;" edge="1" parent="1">
          <mxGeometry width="100" height="100" relative="1" as="geometry">
            <mxPoint x="358.5" y="551.5" as="sourcePoint" />
            <mxPoint x="438.5" y="551.5" as="targetPoint" />
          </mxGeometry>
        </mxCell>
        <mxCell id="Cw-XtT1dbyPp5xmL2tZ--2117" value="publisher" style="verticalLabelPosition=bottom;html=1;verticalAlign=top;strokeColor=none;fillColor=#3399FF;shape=mxgraph.azure.server_rack;dashed=1;fontFamily=Helvetica;fontSize=14;fontColor=#004C99" vertex="1" parent="1">
          <mxGeometry x="460" y="240" width="50" height="50" as="geometry" />
        </mxCell>
        <mxCell id="Cw-XtT1dbyPp5xmL2tZ--2118" value="customer" style="verticalLabelPosition=bottom;html=1;verticalAlign=top;strokeColor=none;fillColor=#3399FF;shape=mxgraph.azure.server_rack;dashed=1;fontFamily=Helvetica;fontSize=14;fontColor=#004C99" vertex="1" parent="1">
          <mxGeometry x="460" y="407" width="50" height="50" as="geometry" />
        </mxCell>
        <mxCell id="Cw-XtT1dbyPp5xmL2tZ--2119" value="Cloud" style="verticalLabelPosition=bottom;html=1;verticalAlign=top;strokeColor=none;fillColor=#3399FF;shape=mxgraph.azure.cloud;dashed=1;fontSize=14;fontColor=#004C99" vertex="1" parent="1">
          <mxGeometry x="642.5" y="290" width="50" height="33.5" as="geometry" />
        </mxCell>
        <mxCell id="Cw-XtT1dbyPp5xmL2tZ--2120" value="Cloud" style="verticalLabelPosition=bottom;html=1;verticalAlign=top;strokeColor=none;fillColor=#3399FF;shape=mxgraph.azure.cloud;dashed=1;fontSize=14;fontColor=#004C99" vertex="1" parent="1">
          <mxGeometry x="642.5" y="393.5" width="50" height="32.5" as="geometry" />
        </mxCell>
        <mxCell id="Cw-XtT1dbyPp5xmL2tZ--2121" value="Cloud" style="verticalLabelPosition=bottom;html=1;verticalAlign=top;strokeColor=none;fillColor=#3399FF;shape=mxgraph.azure.cloud;dashed=1;fontSize=14;fontColor=#004C99" vertex="1" parent="1">
          <mxGeometry x="642.5" y="494.5" width="50" height="32.5" as="geometry" />
        </mxCell>
        <mxCell id="Cw-XtT1dbyPp5xmL2tZ--2127" value="" style="shape=doubleArrow;whiteSpace=wrap;html=1;strokeColor=#FFB366;fillColor=#FFB366;" vertex="1" parent="1">
          <mxGeometry x="523" y="245.5" width="100" height="39" as="geometry" />
        </mxCell>
        <mxCell id="Cw-XtT1dbyPp5xmL2tZ--2128" value="" style="shape=doubleArrow;whiteSpace=wrap;html=1;strokeColor=#FFB366;fillColor=#FFB366;" vertex="1" parent="1">
          <mxGeometry x="528.5" y="418" width="100" height="39" as="geometry" />
        </mxCell>
      </root>
    </mxGraphModel>
  </diagram>
</mxfile>
